<!-- Generated by IcoMoon.io -->
<svg version="1.1" xmlns="http://www.w3.org/2000/svg" width="32" height="32" viewBox="0 0 32 32">
<path fill="#f38181" d="M30.794 1.209c-0.807-0.806-1.772-1.209-2.897-1.209h-23.791c-1.125 0-2.090 0.402-2.896 1.209-0.806 0.805-1.21 1.77-1.21 2.896v23.791c0 1.125 0.402 2.090 1.209 2.896s1.771 1.209 2.896 1.209h23.791c1.125 0 2.091-0.402 2.896-1.209 0.806-0.806 1.209-1.771 1.209-2.896v-23.791c0-1.126-0.402-2.090-1.209-2.896zM11.49 11.531c1.255-1.215 2.767-1.823 4.53-1.823 1.777 0 3.295 0.608 4.553 1.823 1.257 1.216 1.886 2.683 1.886 4.406s-0.628 3.191-1.886 4.406c-1.258 1.216-2.774 1.823-4.553 1.823-1.764 0-3.274-0.608-4.53-1.823-1.258-1.215-1.886-2.683-1.886-4.406s0.628-3.19 1.886-4.406zM28.375 27.041c0 0.009 0 0.019 0 0.029 0 0.345-0.144 0.657-0.375 0.878l-0 0c-0.225 0.225-0.536 0.364-0.879 0.364-0.006 0-0.012-0-0.018-0h-22.269c-0.009 0-0.020 0-0.031 0-0.342 0-0.651-0.139-0.874-0.365l-0-0c-0.225-0.223-0.365-0.532-0.365-0.874 0-0.011 0-0.022 0-0.034l-0 0.002v-13.502h2.937c-0.264 0.807-0.416 1.736-0.416 2.7 0 0.010 0 0.021 0 0.031v-0.002c0 2.667 0.972 4.942 2.917 6.823s4.284 2.823 7.020 2.823c1.806 0 3.472-0.431 5.001-1.292 1.508-0.848 2.733-2.037 3.6-3.467l0.024-0.043c0.838-1.363 1.334-3.014 1.334-4.781 0-0.022-0-0.045-0-0.067l0 0.003c0-0.006 0-0.014 0-0.022 0-0.967-0.153-1.899-0.436-2.772l0.018 0.063h2.814v13.502zM28.375 8.437c0 0.404-0.139 0.743-0.417 1.022-0.252 0.257-0.603 0.416-0.991 0.416-0.011 0-0.022-0-0.032-0l0.002 0h-3.623c-0.404 0-0.743-0.139-1.022-0.416-0.257-0.252-0.416-0.603-0.416-0.991 0-0.011 0-0.021 0-0.032l-0 0.002v-3.436c0-0.389 0.139-0.726 0.416-1.010 0.278-0.286 0.619-0.428 1.022-0.428h3.625c0.402 0 0.743 0.143 1.022 0.428 0.277 0.283 0.416 0.622 0.416 1.009v3.438z"></path>
</svg>
