<!-- Generated by IcoMoon.io -->
<svg version="1.1" xmlns="http://www.w3.org/2000/svg" width="38" height="32" viewBox="0 0 38 32">
<path fill="#f38181" d="M37.818 4.273c-1.407 0.617-2.905 1.027-4.467 1.225 1.607-0.965 2.815-2.456 3.395-4.231l0.015-0.054c-1.415 0.854-3.062 1.505-4.817 1.86l-0.099 0.017c-1.418-1.513-3.429-2.455-5.66-2.455-4.281 0-7.751 3.47-7.751 7.751 0 0.002 0 0.004 0 0.006v-0c0 0.615 0.051 1.206 0.179 1.769-6.445-0.314-12.15-3.404-15.981-8.111-0.666 1.123-1.060 2.475-1.062 3.919v0.001c0 2.684 1.383 5.065 3.444 6.444-1.291-0.036-2.492-0.386-3.541-0.976l0.038 0.020v0.084c0.004 3.739 2.643 6.861 6.16 7.61l0.051 0.009c-0.591 0.162-1.269 0.255-1.969 0.255-0.022 0-0.044-0-0.067-0l0.003 0c-0.496 0-0.998-0.029-1.469-0.131 1.007 3.069 3.856 5.327 7.245 5.399-2.617 2.062-5.962 3.308-9.598 3.308-0.005 0-0.010 0-0.015 0h0.001c-0.637 0-1.247-0.029-1.856-0.106 3.34 2.182 7.43 3.479 11.823 3.479 0.025 0 0.050-0 0.075-0h-0.004c14.266 0 22.067-11.818 22.067-22.063 0-0.343-0.012-0.673-0.029-1.004 1.535-1.107 2.826-2.441 3.851-3.968l0.035-0.056z"></path>
</svg>
